<svg width="1440" height="528" viewBox="0 0 1440 528" fill="none" xmlns="http://www.w3.org/2000/svg">
<path d="M1423.18 506.877L1422.98 498.671C1422.91 495.969 1422.82 493.297 1422.79 490.639L1423.18 491.036C1416.78 491.109 1410.39 491.265 1403.99 491.273L1384.79 491.364L1385.51 490.639L1385.44 506.877L1384.79 506.228C1387.95 506.254 1391.11 506.24 1394.28 506.309L1403.82 506.47L1423.18 506.877ZM1423.18 506.877L1404.16 507.28L1394.5 507.442C1391.27 507.511 1388.03 507.496 1384.79 507.522L1384.15 507.528L1384.14 506.877L1384.07 490.639L1384.06 489.91L1384.79 489.915L1403.99 490.006C1410.39 490.013 1416.78 490.168 1423.18 490.244L1423.58 490.248L1423.58 490.639C1423.55 493.396 1423.46 496.133 1423.39 498.842L1423.18 506.877Z" fill="#CFCFCF"/>
<path d="M1401.77 527.348L1401.56 519.146C1401.5 516.441 1401.4 513.77 1401.37 511.113L1401.77 511.508C1395.37 511.583 1388.97 511.738 1382.57 511.746L1363.37 511.837L1364.1 511.113L1364.02 527.348L1363.37 526.702C1366.54 526.727 1369.69 526.712 1372.86 526.781L1382.4 526.944L1401.77 527.348ZM1401.77 527.348L1382.74 527.753L1373.08 527.915C1369.85 527.982 1366.61 527.969 1363.37 527.995L1362.73 528L1362.73 527.348L1362.65 511.113L1362.65 510.385L1363.37 510.388L1382.57 510.479C1388.97 510.486 1395.37 510.641 1401.77 510.715L1402.17 510.721L1402.16 511.113C1402.14 513.867 1402.04 516.606 1401.97 519.315L1401.77 527.348Z" fill="#CFCFCF"/>
<path d="M1444.6 527.348L1444.39 519.146C1444.33 516.441 1444.23 513.77 1444.21 511.113L1444.6 511.508C1438.2 511.583 1431.8 511.738 1425.4 511.746L1406.21 511.837L1406.93 511.113L1406.85 527.348L1406.21 526.702C1409.37 526.727 1412.53 526.712 1415.7 526.781L1425.24 526.944L1444.6 527.348ZM1444.6 527.348L1425.57 527.753L1415.91 527.915C1412.69 527.982 1409.44 527.969 1406.21 527.995L1405.56 528L1405.56 527.348L1405.48 511.113L1405.48 510.385L1406.21 510.388L1425.4 510.479C1431.8 510.486 1438.2 510.641 1444.6 510.715L1445 510.721L1445 511.113C1444.97 513.867 1444.87 516.606 1444.81 519.315L1444.6 527.348Z" fill="#CFCFCF"/>
<path d="M875.747 313.668L875.541 305.464C875.474 302.761 875.379 300.088 875.351 297.432L875.747 297.828C869.347 297.902 862.949 298.058 856.549 298.066L837.354 298.155L838.078 297.432L838 313.668L837.354 313.021C840.517 313.047 843.671 313.032 846.844 313.1L856.383 313.263L875.747 313.668ZM875.747 313.668L856.718 314.073L847.06 314.234C843.832 314.303 840.589 314.289 837.354 314.315L836.711 314.32L836.708 313.668L836.629 297.432L836.626 296.703L837.354 296.708L856.549 296.797C862.949 296.806 869.347 296.961 875.747 297.037L876.146 297.04L876.143 297.432C876.115 300.187 876.018 302.926 875.953 305.635L875.747 313.668Z" fill="#CFCFCF"/>
<path d="M459.538 16.9649L459.332 8.7611C459.265 6.05791 459.17 3.38516 459.142 0.728445L459.538 1.12454C453.138 1.19858 446.74 1.35529 440.34 1.3627L421.145 1.45237L421.869 0.728445L421.791 16.9649L421.145 16.3174C424.308 16.3438 427.462 16.3294 430.635 16.3972L440.174 16.5601L459.538 16.9649ZM459.538 16.9649L440.509 17.3696L430.851 17.5308C427.623 17.6004 424.38 17.5859 421.145 17.6119L420.502 17.6164L420.499 16.9649L420.42 0.728445L420.417 0L421.145 0.00451889L440.34 0.0941937C446.74 0.103243 453.138 0.258303 459.538 0.333574L459.937 0.336446L459.934 0.728445C459.906 3.48387 459.809 6.22325 459.744 8.9322L459.538 16.9649Z" fill="#CFCFCF"/>
<path d="M55.538 133.965L55.3321 125.761C55.2655 123.058 55.1697 120.385 55.1422 117.728L55.538 118.125C49.1382 118.199 42.7398 118.355 36.34 118.363L17.1454 118.452L17.8692 117.728L17.7906 133.965L17.1454 133.317C20.3076 133.344 23.4625 133.329 26.6346 133.397L36.1736 133.56L55.538 133.965ZM55.538 133.965L36.5085 134.37L26.8508 134.531C23.6232 134.6 20.3804 134.586 17.1454 134.612L16.5017 134.616L16.4989 133.965L16.4204 117.728L16.4175 117L17.1454 117.005L36.34 117.094C42.7398 117.103 49.1382 117.258 55.538 117.334L55.9367 117.336L55.9338 117.728C55.9062 120.484 55.8088 123.223 55.7439 125.932L55.538 133.965Z" fill="#CFCFCF"/>
<path d="M854.329 334.141L854.123 325.937C854.058 323.233 853.961 320.561 853.933 317.904L854.329 318.3C847.93 318.374 841.531 318.529 835.133 318.538L815.937 318.628L816.66 317.904L816.582 334.141L815.937 333.493C819.099 333.518 822.254 333.505 825.426 333.573L834.966 333.736L854.329 334.141ZM854.329 334.141L835.301 334.545L825.642 334.707C822.416 334.776 819.171 334.762 815.937 334.788L815.293 334.792L815.29 334.141L815.212 317.904L815.209 317.176L815.937 317.18L835.133 317.27C841.531 317.277 847.93 317.434 854.329 317.508L854.728 317.512L854.725 317.904C854.697 320.66 854.6 323.399 854.535 326.108L854.329 334.141Z" fill="#CFCFCF"/>
<path d="M438.12 37.4375L437.914 29.2338C437.849 26.5302 437.752 23.8578 437.724 21.2011L438.12 21.5972C431.721 21.6712 425.322 21.8263 418.924 21.8354L399.728 21.925L400.451 21.2011L400.373 37.4375L399.728 36.7901C402.89 36.8148 406.045 36.802 409.217 36.8699L418.757 37.0328L438.12 37.4375ZM438.12 37.4375L419.092 37.8423L409.433 38.0035C406.207 38.073 402.962 38.0586 399.728 38.0845L399.084 38.0891L399.081 37.4375L399.003 21.2011L399 20.4727L399.728 20.4772L418.924 20.5668C425.322 20.5743 431.721 20.731 438.12 20.805L438.519 20.8091L438.516 21.2011C438.488 23.9565 438.391 26.6959 438.326 29.4049L438.12 37.4375Z" fill="#CFCFCF"/>
<path d="M34.1201 154.438L33.9142 146.234C33.8492 143.53 33.7518 140.858 33.7243 138.201L34.1201 138.597C27.7207 138.671 21.3223 138.826 14.9242 138.835L-4.27212 138.925L-3.54875 138.201L-3.62683 154.438L-4.27212 153.79C-1.10986 153.815 2.0446 153.802 5.21713 153.87L14.7573 154.033L34.1201 154.438ZM34.1201 154.438L15.0923 154.842L5.43331 155.003C2.20694 155.073 -1.03752 155.059 -4.27212 155.085L-4.91573 155.089L-4.91902 154.438L-4.99711 138.201L-5 137.473L-4.27212 137.477L14.9242 137.567C21.3223 137.574 27.7207 137.731 34.1201 137.805L34.5191 137.809L34.5158 138.201C34.4883 140.957 34.3913 143.696 34.326 146.405L34.1201 154.438Z" fill="#CFCFCF"/>
<path d="M897.162 334.141L896.957 325.937C896.891 323.233 896.794 320.561 896.768 317.904L897.162 318.3C890.764 318.374 884.365 318.529 877.966 318.538L858.77 318.628L859.495 317.904L859.416 334.141L858.77 333.493C861.934 333.52 865.088 333.505 868.261 333.573L877.799 333.736L897.162 334.141ZM897.162 334.141L878.133 334.545L868.477 334.707C865.249 334.776 862.006 334.762 858.77 334.788L858.127 334.792L858.123 334.141L858.045 317.904L858.042 317.176L858.77 317.18L877.966 317.27C884.365 317.277 890.764 317.434 897.162 317.508L897.562 317.512L897.558 317.904C897.532 320.66 897.433 323.399 897.37 326.108L897.162 334.141Z" fill="#CFCFCF"/>
<path d="M480.953 37.4375L480.748 29.2338C480.682 26.5302 480.585 23.8578 480.559 21.2011L480.953 21.5972C474.555 21.6712 468.156 21.8263 461.757 21.8354L442.561 21.925L443.286 21.2011L443.207 37.4375L442.561 36.7901C445.725 36.8164 448.879 36.802 452.052 36.8699L461.59 37.0328L480.953 37.4375ZM480.953 37.4375L461.924 37.8423L452.268 38.0035C449.04 38.073 445.797 38.0586 442.561 38.0845L441.918 38.0891L441.914 37.4375L441.836 21.2011L441.833 20.4727L442.561 20.4772L461.757 20.5668C468.156 20.5743 474.555 20.731 480.953 20.805L481.353 20.8091L481.349 21.2011C481.323 23.9565 481.224 26.6959 481.161 29.4049L480.953 37.4375Z" fill="#CFCFCF"/>
<path d="M76.9534 154.438L76.7475 146.234C76.6822 143.53 76.5848 140.858 76.5589 138.201L76.9534 138.597C70.555 138.671 64.1565 138.826 57.7572 138.835L38.5609 138.925L39.2859 138.201L39.2074 154.438L38.5609 153.79C41.7248 153.816 44.8793 153.802 48.0518 153.87L57.5903 154.033L76.9534 154.438ZM76.9534 154.438L57.9236 154.842L48.2676 155.003C45.0404 155.073 41.7971 155.059 38.5609 155.085L37.9185 155.089L37.9144 154.438L37.8359 138.201L37.833 137.473L38.5609 137.477L57.7572 137.567C64.1565 137.574 70.555 137.731 76.9534 137.805L77.3534 137.809L77.3492 138.201C77.3229 140.957 77.2243 143.696 77.1606 146.405L76.9534 154.438Z" fill="#CFCFCF"/>
<path d="M562.704 421.097L562.498 412.894C562.434 410.19 562.335 407.518 562.308 404.861L562.704 405.257C556.305 405.331 549.906 405.488 543.508 405.495L524.311 405.587L525.036 404.861L524.957 421.096L524.311 420.45C527.474 420.477 530.629 420.462 533.801 420.53L543.34 420.693L562.704 421.097ZM562.704 421.097L543.675 421.501L534.018 421.665C530.79 421.732 527.547 421.718 524.311 421.743L523.668 421.749L523.665 421.096L523.587 404.861L523.583 404.133L524.311 404.136L543.508 404.227C549.906 404.234 556.305 404.391 562.704 404.465L563.103 404.469L563.1 404.861C563.072 407.617 562.976 410.356 562.91 413.065L562.704 421.097Z" fill="#CFCFCF"/>
<path d="M1199.17 313.656L1198.96 305.453C1198.89 302.749 1198.8 300.078 1198.77 297.42L1199.17 297.816C1192.77 297.89 1186.37 298.047 1179.97 298.054L1160.77 298.145L1161.5 297.42L1161.42 313.656L1160.77 313.009C1163.94 313.035 1167.09 313.02 1170.26 313.089L1179.8 313.251L1199.17 313.656ZM1199.17 313.656L1180.14 314.061L1170.48 314.223C1167.25 314.292 1164.01 314.277 1160.77 314.303L1160.13 314.308L1160.13 313.656L1160.05 297.42L1160.04 296.691L1160.77 296.696L1179.97 296.787C1186.37 296.794 1192.77 296.95 1199.17 297.024L1199.57 297.03L1199.56 297.42C1199.53 300.175 1199.44 302.914 1199.37 305.624L1199.17 313.656Z" fill="#CFCFCF"/>
<path d="M1420.96 155.964L1420.76 147.76C1420.69 145.058 1420.59 142.386 1420.57 139.728L1420.96 140.123C1414.56 140.199 1408.17 140.354 1401.77 140.363L1382.57 140.453L1383.3 139.728L1383.22 155.964L1382.57 155.318C1385.74 155.343 1388.89 155.329 1392.06 155.398L1401.6 155.558L1420.96 155.964ZM1420.96 155.964L1401.93 156.368L1392.28 156.531C1389.05 156.599 1385.81 156.585 1382.57 156.611L1381.93 156.616L1381.93 155.964L1381.85 139.728L1381.84 139L1382.57 139.003L1401.77 139.095C1408.17 139.102 1414.56 139.258 1420.96 139.332L1421.36 139.337L1421.36 139.728C1421.33 142.483 1421.24 145.223 1421.17 147.931L1420.96 155.964Z" fill="#CFCFCF"/>
<path d="M136.12 391.964L135.915 383.76C135.849 381.058 135.751 378.386 135.724 375.728L136.12 376.123C129.721 376.199 123.322 376.354 116.924 376.363L97.7279 376.453L98.4513 375.728L98.3732 391.964L97.7279 391.318C100.892 391.343 104.045 391.329 107.217 391.398L116.757 391.558L136.12 391.964ZM136.12 391.964L117.091 392.368L107.433 392.531C104.207 392.599 100.963 392.585 97.7279 392.611L97.0843 392.616L97.0814 391.964L97.0029 375.728L97 375L97.7279 375.003L116.924 375.095C123.322 375.102 129.721 375.258 136.12 375.332L136.52 375.337L136.516 375.728C136.489 378.483 136.391 381.223 136.326 383.931L136.12 391.964Z" fill="#CFCFCF"/>
<path d="M1442.38 176.436L1442.17 168.233C1442.11 165.531 1442.01 162.858 1441.99 160.201L1442.38 160.596C1435.98 160.671 1429.58 160.827 1423.18 160.834L1403.99 160.925L1404.71 160.201L1404.63 176.436L1403.99 175.789C1407.15 175.815 1410.31 175.8 1413.48 175.87L1423.02 176.031L1442.38 176.436ZM1442.38 176.436L1423.35 176.841L1413.69 177.003C1410.47 177.072 1407.22 177.059 1403.99 177.083L1403.34 177.088L1403.34 176.436L1403.26 160.201L1403.26 159.473L1403.99 159.476L1423.18 159.567C1429.58 159.574 1435.98 159.73 1442.38 159.804L1442.78 159.81L1442.78 160.201C1442.75 162.955 1442.65 165.695 1442.59 168.404L1442.38 176.436Z" fill="#CFCFCF"/>
<path d="M157.537 412.436L157.331 404.233C157.265 401.531 157.169 398.858 157.141 396.201L157.537 396.596C151.139 396.671 144.739 396.827 138.341 396.834L119.143 396.925L119.867 396.201L119.79 412.436L119.143 411.789C122.307 411.815 125.462 411.8 128.634 411.87L138.173 412.031L157.537 412.436ZM157.537 412.436L138.508 412.841L128.85 413.003C125.622 413.072 122.38 413.059 119.143 413.083L118.501 413.088L118.497 412.436L118.418 396.201L118.416 395.473L119.143 395.476L138.341 395.567C144.739 395.574 151.139 395.73 157.537 395.804L157.936 395.81L157.931 396.201C157.905 398.955 157.808 401.695 157.741 404.404L157.537 412.436Z" fill="#CFCFCF"/>
<path d="M519.87 155.981L519.664 147.779C519.599 145.075 519.502 142.403 519.475 139.746L519.87 140.142C513.471 140.216 507.073 140.371 500.674 140.379L481.477 140.47L482.201 139.746L482.123 155.981L481.477 155.335C484.64 155.36 487.795 155.347 490.967 155.415L500.506 155.577L519.87 155.981ZM519.87 155.981L500.841 156.386L491.183 156.548C487.956 156.616 484.712 156.603 481.477 156.628L480.834 156.634L480.831 155.981L480.753 139.746L480.75 139.018L481.477 139.02L500.674 139.112C507.073 139.119 513.471 139.274 519.87 139.35L520.269 139.354L520.266 139.746C520.239 142.5 520.142 145.239 520.077 147.95L519.87 155.981Z" fill="#CFCFCF"/>
</svg>
